<svg width="28" height="34" viewBox="0 0 28 34" fill="none" xmlns="http://www.w3.org/2000/svg">
<path d="M21.9992 10.2892C21.9633 11.7924 23.2 14.6085 23.2 14.6085L27.7364 17.4384C27.7364 17.4384 28.3295 20.6236 27.7364 22.5024C26.995 24.8511 25.8253 25.9639 23.7337 27.2685C22.2814 27.9706 21.394 28.1694 19.731 28.3111C17.5884 28.2488 16.3919 28.0814 14.2606 27.7154C14.07 28.0312 14.0576 28.2189 14.5274 28.609C16.4976 29.5708 17.641 29.7692 19.731 29.6516V31.29C19.731 31.29 17.0948 33.1024 15.1946 33.3751C12.1207 33.8163 10.2061 33.8855 7.32253 33.3751C4.09225 32.8034 0.44413 30.0984 0.0438576 29.6516C-0.356415 29.2048 2.09709 18.56 2.77667 16.8531C3.45625 15.1462 4.96293 11.3531 4.96293 11.3531C4.96293 11.3531 4.96293 13.629 5.3273 14.7669C5.69168 15.9048 5.44661 15.3766 5.87387 16.0945C6.30112 16.8124 5.12276 9.10147 5.58801 6.71458C6.05327 4.32769 6.76575 2.90172 7.05568 2.39527C7.3456 1.88882 12.7177 9.62828 12.9263 10.2892C13.135 10.9501 11.9924 7.31033 11.8589 6.71458C11.7255 6.11882 14.2606 0.310087 14.6609 0.756908C15.0611 1.20373 16.2993 5.69742 15.8617 6.71458C15.424 7.73173 22.0351 8.7859 21.9992 10.2892Z" fill="#F75322"/>
</svg>
