<svg width="34" height="31" viewBox="0 0 34 31" fill="none" xmlns="http://www.w3.org/2000/svg">
<path d="M3.60488 19.4588C3.60488 19.4588 6.96249 22.0863 8.87382 21.8066C10.7852 21.5268 11.7361 20.2494 11.9718 19.4295C12.2075 18.6096 12.2824 17.4262 11.9565 15.6982C11.6307 13.9701 8.81449 7.33633 8.81449 7.33633C8.35003 9.0767 10.7604 15.0584 10.841 15.7021C11.0395 17.2882 10.8552 19.174 9.98158 19.8915C9.10797 20.609 6.95353 19.9021 6.95353 19.9021C4.95172 19.3397 2.95284 15.9117 2.71304 15.7305C2.48696 15.5597 0.697703 14.181 0.49368 14.0238C0.49041 14.2457 0.474754 14.0092 0.474754 14.0092C0.474754 14.0092 0.481297 14.0142 0.49368 14.0238C0.496128 13.8576 0.491631 13.4343 0.468414 12.462C0.414191 10.1915 6.13371 3.72174 7.20665 3.88361C8.27959 4.04548 6.509 3.78969 10.7827 1.50485C15.0565 -0.779983 18.4314 1.20506 18.4314 1.20506C18.4314 1.20506 22.0597 2.37366 23.4647 4.37276C24.2668 5.51409 24.7145 6.56324 24.9128 7.73503L23.4766 7.28501C24.1024 7.99141 24.9166 8.64511 24.9166 8.64511C24.9166 8.64511 26.8896 9.82531 27.9513 10.2726C29.013 10.72 32.7351 10.893 32.7351 10.893C33.0822 11.1878 33.3141 14.5906 33.0766 16.4433C32.8391 18.2961 32.3904 19.0913 31.3392 20.2718C29.8457 21.9488 28.1941 21.3175 26.2471 22.2008C24.5008 22.993 23.1053 22.8712 21.8738 24.4913C21.3074 25.2364 21.0012 25.7292 20.7671 26.6794C20.5059 27.7395 20.7787 29.5006 20.7787 29.5006L21.8782 25.5834L22.4551 30.2229C22.4551 30.2229 9.07579 32.1809 2.75819 26.7424C1.78198 25.9021 1.12007 25.1475 0.699817 24.4724C-0.469407 22.5939 0.231871 21.3297 1.23915 20.5407C2.21284 19.778 3.47247 19.4592 3.60488 19.4588Z" fill="#F75322"/>
</svg>
