<svg width="265" height="93" viewBox="0 0 265 93" fill="none" xmlns="http://www.w3.org/2000/svg">
<path d="M34.4391 49.7767C35.0479 48.6399 35.4109 47.9554 35.4767 48.6268C35.1184 49.0516 34.7726 49.4341 34.4391 49.7767C33.5154 51.5013 32.0261 54.267 30.1506 54.9187C27.0389 55.9999 25.3122 52.5419 24.1374 45.014L20.3147 49.5854V24.5901C20.0459 20.7038 21.3073 19.7935 24.1374 18.6915C24.1374 18.6915 42.7941 13.6969 53.3232 18.6915C62.6844 23.1321 69.5952 27.6049 72.4797 38.7221C75.415 50.0352 70.8551 62.5391 65.5935 67.8956C60.3319 73.2521 53.9253 76.3167 37.1518 75.3426V67.8956C37.1518 67.8956 43.4873 58.1629 53.3232 56.6391C63.1591 55.1153 63.9986 42.1384 62.1498 42.1384H51.3045C41.0191 26.6022 28.2331 36.8892 27.8098 41.0078C25.6117 44.7702 26.8556 57.5668 34.4391 49.7767Z" fill="#F65322"/>
<path d="M25.8037 75.5141C26.3806 71.2359 25.4662 69.0229 25.0248 64.7652C24.5992 60.6608 29.3983 56.4957 29.5388 56.1224L29.5346 56.0967C29.5428 56.0998 29.5441 56.1085 29.5388 56.1224L29.8216 57.8304C29.8216 57.8304 31.1335 58.0285 31.3795 59.1183C31.6255 60.208 32.0355 60.6538 32.0355 60.6538C32.0602 61.9776 31.7624 62.2034 31.2975 62.5361C31.0538 62.7106 30.9331 62.7874 30.8055 63.1801V63.8736C34.7037 64.9214 35.5062 66.4348 36.1353 69.6691C36.7644 72.9034 35.7663 75.5141 35.7663 75.5141H25.8037Z" fill="#F65322"/>
<path d="M22.5206 73.1584C24.4023 75.3938 27.1362 75.5138 27.1362 75.5138C27.1362 75.5138 25.3743 74.6252 23.9824 72.3569C21.769 68.7498 25.5814 60.9914 21.9494 60.1918C18.0769 59.3392 19.5039 69.5744 22.5206 73.1584Z" fill="#F65322"/>
<path d="M81.5987 49.0001C81.5987 46.805 81.768 44.7045 82.1066 42.6999C82.4481 40.6953 83.0188 38.8633 83.8171 37.2026C84.614 35.5432 85.7057 34.0973 87.0922 32.8661C88.4816 31.6324 90.2169 30.68 92.2996 30.0075C94.3808 29.3364 96.8824 29.0001 99.8013 29.0001C102.72 29.0001 105.22 29.3364 107.303 30.0075C109.384 30.68 111.118 31.6324 112.505 32.8661C113.894 34.0973 114.986 35.5432 115.78 37.2026C116.577 38.8633 117.147 40.6928 117.49 42.6897C117.832 44.684 118.004 46.7884 118.004 49.0001C118.004 51.1964 117.832 53.2956 117.49 55.3002C117.147 57.3048 116.577 59.1381 115.78 60.7975C114.986 62.4544 113.894 63.9003 112.505 65.134C111.118 66.369 109.384 67.3214 107.303 67.9926C105.22 68.6638 102.72 69 99.8013 69C96.8824 69 94.3808 68.6638 92.2996 67.9926C90.2169 67.3214 88.4816 66.369 87.0922 65.134C85.7057 63.9003 84.614 62.4544 83.8171 60.7975C83.0188 59.1381 82.4481 57.3048 82.1066 55.3002C81.768 53.2956 81.5987 51.1964 81.5987 49.0001ZM93.6832 49.0001C93.6832 50.6135 93.7591 52.1284 93.9109 53.5462C94.0656 54.9614 94.3618 56.2041 94.7982 57.2741C95.2331 58.3416 95.8505 59.1803 96.6488 59.7901C97.4457 60.3974 98.4965 60.7004 99.8013 60.7004C101.105 60.7004 102.155 60.3974 102.954 59.7901C103.751 59.1803 104.367 58.3416 104.799 57.2741C105.233 56.2041 105.53 54.9614 105.686 53.5462C105.841 52.1284 105.919 50.6135 105.919 49.0001C105.919 47.3841 105.841 45.8692 105.686 44.4539C105.53 43.04 105.233 41.7935 104.799 40.7158C104.367 39.6355 103.751 38.7917 102.954 38.1845C102.155 37.5785 101.105 37.2742 99.8013 37.2742C98.4965 37.2742 97.4457 37.5785 96.6488 38.1845C95.8505 38.7917 95.2331 39.6355 94.7982 40.7158C94.3618 41.7935 94.0656 43.04 93.9109 44.4539C93.7591 45.8692 93.6832 47.3841 93.6832 49.0001Z" fill="#F65322"/>
<path d="M125.285 49.2202C125.285 47.0741 125.468 45.0205 125.831 43.0607C126.199 41.1008 126.797 39.3097 127.627 37.6861C128.459 36.0637 129.567 34.6501 130.95 33.4464C132.335 32.2403 134.042 31.3091 136.068 30.6516C138.094 29.9954 140.502 29.6667 143.294 29.6667C146.063 29.6667 148.392 29.9642 150.281 30.5566C152.168 31.1503 153.676 31.9353 154.802 32.9115C155.929 33.8889 156.744 34.9538 157.25 36.1062C157.755 37.2561 158.008 38.391 158.008 39.5109C158.008 40.4846 157.794 41.3758 157.367 42.1857C156.943 42.9932 156.386 43.6894 155.694 44.2756C155.003 44.8593 154.231 45.3105 153.381 45.6305C152.529 45.9479 151.687 46.1054 150.855 46.1054C149.787 46.1054 148.864 45.788 148.084 45.1505C147.303 44.5106 146.913 43.4906 146.913 42.0907C146.913 41.0608 146.818 40.2284 146.628 39.5909C146.442 38.951 146.09 38.486 145.575 38.196C145.062 37.9036 144.301 37.7561 143.294 37.7561C142.045 37.7561 141.01 38.0536 140.189 38.646C139.37 39.2397 138.724 40.0647 138.248 41.1208C137.772 42.1745 137.43 43.3931 137.222 44.7755C137.017 46.1592 136.916 47.6403 136.916 49.2202C136.916 50.7976 137.017 52.2787 137.222 53.6648C137.43 55.0485 137.772 56.2634 138.248 57.3096C138.724 58.3532 139.37 59.1732 140.189 59.7694C141.01 60.3631 142.045 60.6593 143.294 60.6593C144.164 60.6593 144.761 60.3843 145.084 59.8344C145.41 59.2844 145.575 58.6282 145.575 57.8645C145.575 57.1221 145.476 56.4884 145.279 55.9647C145.081 55.4422 144.835 54.9772 144.538 54.5698C144.239 54.1598 143.942 53.7736 143.646 53.4099C143.351 53.0474 143.105 52.6624 142.904 52.255C142.706 51.845 142.608 51.365 142.608 50.8151C142.608 50.2126 142.772 49.8051 143.099 49.5952C143.425 49.3827 143.807 49.2677 144.242 49.2502C144.677 49.2302 145.052 49.2202 145.368 49.2202H156.614C157.246 49.2202 157.714 49.3189 158.019 49.5152C158.328 49.7089 158.53 49.9301 158.627 50.1801C158.728 50.4276 158.778 50.6476 158.778 50.8401C158.778 51.16 158.663 51.555 158.438 52.025C158.21 52.4949 157.982 53.0774 157.752 53.7698C157.525 54.4598 157.412 55.3122 157.412 56.3246C157.412 57.2821 157.302 58.3232 157.083 59.4494C156.867 60.5768 156.472 61.6892 155.901 62.7891C155.328 63.8866 154.512 64.8877 153.453 65.7939C152.394 66.6976 151.039 67.4213 149.388 67.9637C147.738 68.5037 145.706 68.7737 143.294 68.7737C140.502 68.7737 138.094 68.445 136.068 67.7887C134.042 67.1325 132.335 66.2014 130.95 64.994C129.567 63.7878 128.459 62.3742 127.627 60.7543C126.797 59.1319 126.199 57.3396 125.831 55.3797C125.468 53.4199 125.285 51.3675 125.285 49.2202Z" fill="#F65322"/>
<path d="M166.059 49.2202C166.059 47.0741 166.241 45.0205 166.605 43.0607C166.973 41.1008 167.571 39.3097 168.401 37.6861C169.233 36.0637 170.341 34.6501 171.724 33.4464C173.109 32.2403 174.815 31.3091 176.842 30.6516C178.867 29.9954 181.276 29.6667 184.068 29.6667C186.836 29.6667 189.166 29.9642 191.054 30.5566C192.942 31.1503 194.45 31.9353 195.576 32.9115C196.702 33.8889 197.518 34.9538 198.024 36.1062C198.529 37.2561 198.782 38.391 198.782 39.5109C198.782 40.4846 198.568 41.3758 198.141 42.1857C197.717 42.9932 197.16 43.6894 196.468 44.2756C195.777 44.8593 195.005 45.3105 194.154 45.6305C193.303 45.9479 192.461 46.1054 191.629 46.1054C190.561 46.1054 189.638 45.788 188.858 45.1505C188.077 44.5106 187.687 43.4906 187.687 42.0907C187.687 41.0608 187.592 40.2284 187.402 39.5909C187.216 38.951 186.864 38.486 186.349 38.196C185.836 37.9036 185.075 37.7561 184.068 37.7561C182.819 37.7561 181.783 38.0536 180.962 38.646C180.144 39.2397 179.497 40.0647 179.022 41.1208C178.545 42.1745 178.204 43.3931 177.996 44.7755C177.791 46.1592 177.69 47.6403 177.69 49.2202C177.69 50.7976 177.791 52.2787 177.996 53.6648C178.204 55.0485 178.545 56.2634 179.022 57.3096C179.497 58.3532 180.144 59.1732 180.962 59.7694C181.783 60.3631 182.819 60.6593 184.068 60.6593C184.938 60.6593 185.535 60.3843 185.858 59.8344C186.184 59.2844 186.349 58.6282 186.349 57.8645C186.349 57.1221 186.25 56.4884 186.053 55.9647C185.855 55.4422 185.608 54.9772 185.311 54.5698C185.013 54.1598 184.716 53.7736 184.419 53.4099C184.125 53.0474 183.879 52.6624 183.678 52.255C183.48 51.845 183.382 51.365 183.382 50.8151C183.382 50.2126 183.545 49.8051 183.873 49.5952C184.199 49.3827 184.581 49.2677 185.016 49.2502C185.451 49.2302 185.826 49.2202 186.142 49.2202H197.388C198.02 49.2202 198.488 49.3189 198.793 49.5152C199.101 49.7089 199.304 49.9301 199.401 50.1801C199.501 50.4276 199.552 50.6476 199.552 50.8401C199.552 51.16 199.437 51.555 199.212 52.025C198.984 52.4949 198.756 53.0774 198.526 53.7698C198.299 54.4598 198.186 55.3122 198.186 56.3246C198.186 57.2821 198.076 58.3232 197.857 59.4494C197.641 60.5768 197.246 61.6892 196.675 62.7891C196.102 63.8866 195.286 64.8877 194.227 65.7939C193.168 66.6976 191.813 67.4213 190.162 67.9637C188.512 68.5037 186.48 68.7737 184.068 68.7737C181.276 68.7737 178.867 68.445 176.842 67.7887C174.815 67.1325 173.109 66.2014 171.724 64.994C170.341 63.7878 169.233 62.3742 168.401 60.7543C167.571 59.1319 166.973 57.3396 166.605 55.3797C166.241 53.4199 166.059 51.3675 166.059 49.2202Z" fill="#F65322"/>
<path d="M206.833 64.2373C206.833 63.4 207.103 62.4369 207.646 61.3506C208.193 60.2618 208.92 59.0799 209.831 57.805C210.741 56.5276 211.75 55.1898 212.858 53.7917C213.964 52.3911 215.072 50.949 216.18 49.4666C217.146 48.2533 218.088 47.0576 219.006 45.8808C219.927 44.704 220.757 43.6076 221.497 42.5917C222.24 41.5758 222.838 40.6756 223.292 39.891C223.749 39.104 224.001 38.4917 224.05 38.0554C224.102 37.6204 223.88 37.4016 223.387 37.4016C221.94 37.4016 220.684 37.5927 219.613 37.9749C218.546 38.3571 217.603 38.8249 216.782 39.3781C215.964 39.9313 215.218 40.4895 214.547 41.0528C213.874 41.6135 213.22 42.0863 212.585 42.471C211.952 42.8532 211.282 43.0443 210.573 43.0443C209.882 43.0443 209.387 42.8884 209.09 42.5766C208.792 42.2648 208.614 41.87 208.555 41.3897C208.495 40.9069 208.466 40.4329 208.466 39.9665V32.3171C208.466 31.53 208.736 30.8913 209.28 30.401C209.826 29.9119 210.534 29.6667 211.403 29.6667H236.463C236.778 29.6667 237.183 29.6856 237.678 29.722C238.171 29.756 238.672 29.8578 239.177 30.0288C239.682 30.1973 240.108 30.4814 240.454 30.8838C240.799 31.2861 240.972 31.8532 240.972 32.5836C240.972 33.4223 240.635 34.4972 239.963 35.8074C239.29 37.1187 238.38 38.6086 237.232 40.2783C236.087 41.9455 234.798 43.7371 233.364 45.6545C231.929 47.5731 230.432 49.576 228.871 51.6644C227.311 53.7502 225.797 55.8537 224.334 57.976C223.702 58.9051 223.331 59.5979 223.22 60.053C223.111 60.5057 223.483 60.732 224.334 60.732C225.775 60.732 227.056 60.5333 228.175 60.1335C229.292 59.7312 230.301 59.2371 231.201 58.6499C232.1 58.0602 232.919 57.4756 233.659 56.8947C234.402 56.3151 235.114 55.826 235.794 55.4262C236.477 55.0239 237.176 54.8227 237.89 54.8227C238.581 54.8227 239.073 54.9786 239.367 55.2904C239.664 55.6022 239.842 55.9945 239.902 56.4672C239.96 56.94 239.991 57.4165 239.991 57.8955V65.5499C239.991 66.3345 239.719 66.9732 239.177 67.4661C238.634 67.9564 237.929 68.2003 237.059 68.2003H211.52C210.138 68.2003 209.009 67.8307 208.137 67.0889C207.267 66.3483 206.833 65.3978 206.833 64.2373Z" fill="#F65322"/>
<path d="M250.969 49.3333C250.969 47.3864 250.903 45.7077 250.773 44.2973C250.642 42.8842 250.472 41.6676 250.264 40.6473C250.058 39.6283 249.839 38.7453 249.609 37.9984C249.38 37.2528 249.162 36.579 248.953 35.9758C248.748 35.3739 248.58 34.7681 248.45 34.1585C248.318 33.5502 248.254 32.8803 248.254 32.1513C248.254 31.4775 248.427 30.968 248.774 30.6215C249.124 30.2763 249.553 30.035 250.056 29.8977C250.563 29.7616 251.066 29.6898 251.563 29.6821C252.058 29.6718 252.465 29.6667 252.783 29.6667H260.47C260.787 29.6667 261.194 29.6718 261.691 29.6821C262.187 29.6898 262.689 29.7616 263.197 29.8977C263.704 30.035 264.132 30.2763 264.479 30.6215C264.826 30.968 265 31.4775 265 32.1513C265 32.8803 264.934 33.5502 264.804 34.1585C264.677 34.7681 264.509 35.3739 264.3 35.9758C264.09 36.579 263.872 37.2528 263.645 37.9984C263.417 38.7453 263.199 39.6283 262.99 40.6473C262.78 41.6676 262.611 42.8842 262.48 44.2973C262.353 45.7077 262.29 47.3864 262.29 49.3333C262.29 51.2814 262.353 52.9614 262.48 54.3744C262.611 55.7848 262.78 57.0002 262.99 58.0192C263.199 59.0395 263.417 59.9225 263.645 60.6681C263.872 61.4151 264.09 62.0888 264.3 62.6907C264.509 63.2901 264.677 63.8907 264.804 64.4926C264.934 65.0958 265 65.7696 265 66.5152C265 67.1903 264.826 67.6998 264.479 68.045C264.132 68.3915 263.704 68.6328 263.197 68.7689C262.689 68.9062 262.187 68.9793 261.691 68.9896C261.194 68.9973 260.787 68.9999 260.47 68.9999H252.783C252.465 68.9999 252.058 68.9973 251.563 68.9896C251.066 68.9793 250.563 68.9062 250.056 68.7689C249.553 68.6328 249.124 68.3915 248.774 68.045C248.427 67.6998 248.254 67.1903 248.254 66.5152C248.254 65.7696 248.318 65.0958 248.45 64.4926C248.58 63.8907 248.748 63.2901 248.953 62.6907C249.162 62.0888 249.38 61.4151 249.609 60.6681C249.839 59.9225 250.058 59.0395 250.264 58.0192C250.472 57.0002 250.642 55.7848 250.773 54.3744C250.903 52.9614 250.969 51.2814 250.969 49.3333Z" fill="#F65322"/>
</svg>
