<svg width="11" height="9" viewBox="0 0 11 9" fill="none" xmlns="http://www.w3.org/2000/svg">
<path d="M3.51683 1.59856V0.319712C3.51683 0.234919 3.55051 0.153599 3.61047 0.0936413C3.67043 0.0336838 3.75175 0 3.83654 0C3.92133 0 4.00265 0.0336838 4.06261 0.0936413C4.12257 0.153599 4.15625 0.234919 4.15625 0.319712V1.59856C4.15625 1.68335 4.12257 1.76467 4.06261 1.82463C4.00265 1.88459 3.92133 1.91827 3.83654 1.91827C3.75175 1.91827 3.67043 1.88459 3.61047 1.82463C3.55051 1.76467 3.51683 1.68335 3.51683 1.59856ZM5.11539 1.91827C5.20018 1.91827 5.2815 1.88459 5.34146 1.82463C5.40141 1.76467 5.4351 1.68335 5.4351 1.59856V0.319712C5.4351 0.234919 5.40141 0.153599 5.34146 0.0936413C5.2815 0.0336838 5.20018 0 5.11539 0C5.03059 0 4.94927 0.0336838 4.88932 0.0936413C4.82936 0.153599 4.79567 0.234919 4.79567 0.319712V1.59856C4.79567 1.68335 4.82936 1.76467 4.88932 1.82463C4.94927 1.88459 5.03059 1.91827 5.11539 1.91827ZM6.39423 1.91827C6.47902 1.91827 6.56034 1.88459 6.6203 1.82463C6.68026 1.76467 6.71394 1.68335 6.71394 1.59856V0.319712C6.71394 0.234919 6.68026 0.153599 6.6203 0.0936413C6.56034 0.0336838 6.47902 0 6.39423 0C6.30944 0 6.22812 0.0336838 6.16816 0.0936413C6.1082 0.153599 6.07452 0.234919 6.07452 0.319712V1.59856C6.07452 1.68335 6.1082 1.76467 6.16816 1.82463C6.22812 1.88459 6.30944 1.91827 6.39423 1.91827ZM10.1668 3.325C10.116 3.25717 10.0402 3.21232 9.95627 3.20033C9.87233 3.18834 9.78706 3.21018 9.71923 3.26106L8.95192 3.83654V2.8774C8.95192 2.79261 8.91824 2.71129 8.85828 2.65133C8.79832 2.59138 8.717 2.55769 8.63221 2.55769H1.59856C1.51377 2.55769 1.43245 2.59138 1.37249 2.65133C1.31253 2.71129 1.27885 2.79261 1.27885 2.8774V3.83654L0.51154 3.26106C0.443705 3.21018 0.358439 3.18834 0.274499 3.20033C0.190558 3.21232 0.114819 3.25717 0.0639436 3.325C0.013068 3.39283 -0.00877694 3.4781 0.00321457 3.56204C0.0152061 3.64598 0.0600517 3.72172 0.127886 3.7726L1.27885 4.63582V7.03365C1.27885 7.37282 1.41358 7.6981 1.65341 7.93793C1.89324 8.17776 2.21852 8.3125 2.55769 8.3125H7.67308C8.01225 8.3125 8.33753 8.17776 8.57736 7.93793C8.81719 7.6981 8.95192 7.37282 8.95192 7.03365V4.63582L10.1029 3.7726C10.1365 3.7474 10.1648 3.71584 10.1862 3.67972C10.2076 3.64359 10.2216 3.6036 10.2276 3.56204C10.2335 3.52048 10.2312 3.47815 10.2208 3.43748C10.2103 3.39681 10.192 3.35859 10.1668 3.325Z" fill="white"/>
</svg>
